{"accessors" : [{"bufferView" : 0, "byteOffset" : 0, "componentType" : 5123, "count" : 11640, "type" : "SCALAR", "max" : [11639], "min" : [0]}, {"bufferView" : 1, "byteOffset" : 0, "componentType" : 5126, "count" : 11640, "type" : "VEC3", "max" : [2570.652587890625, 2960.52783203125, 394.65252685546875], "min" : [-1157.3077392578125, 879.4721069335938, -2694.00390625], "name" : "POSITION"}, {"bufferView" : 1, "byteOffset" : 12, "componentType" : 5126, "count" : 11640, "type" : "VEC3", "max" : [0.998282253742218, 0.9998664259910583, 0.9987196326255798], "min" : [-0.998282253742218, -0.9998664259910583, -0.9987196326255798], "name" : "NORMAL"}], "asset" : {"generator" : "Aspose.3D 24.1.0", "version" : "2.0"}, "buffers" : [{"uri" : "data:application/octet-stream;base64,", "byteLength" : 302648}], "bufferViews" : [{"buffer" : 0, "byteOffset" : 0, "byteLength" : 23280, "target" : 34963}, {"buffer" : 0, "byteOffset" : 23284, "byteLength" : 279360, "byteStride" : 24, "target" : 34962}], "meshes" : [{"primitives" : [{"attributes" : {"POSITION" : 1, "NORMAL" : 2}, "indices" : 0, "mode" : 4}], "name" : ""}], "nodes" : [{"mesh" : 0, "name" : ""}], "scene" : 0, "scenes" : [{"nodes" : [0]}]}